@startuml

' Copyright (C) 2026 Artyom V. Poptsov <poptsov.artyom@gmail.com>
'
' This program is free software: you can redistribute it and/or modify
' it under the terms of the GNU General Public License as published by
' the Free Software Foundation, either version 3 of the License, or
' (at your option) any later version.
'
' The program is distributed in the hope that it will be useful,
' but WITHOUT ANY WARRANTY; without even the implied warranty of
' MERCHANTABILITY or FITNESS FOR A PARTICULAR PURPOSE.  See the
' GNU General Public License for more details.
'
' You should have received a copy of the GNU General Public License
' along with the program.  If not, see <http://www.gnu.org/licenses/>.


title RFC4180 DSV writer.

legend
event-source: dsv-context-next-row
pre-action: dsv-context-update
endlegend

[*] --> process_row

process_row -> [*]: dsv-context-data-end?
process_row -> process_row: guard:#t -> rfc4180-writer-process-row

@enduml
